<svg width="720" height="540" viewBox="0 0 720 540" fill="none" xmlns="http://www.w3.org/2000/svg">
  <rect width="720" height="540" rx="40" fill="#E1EBEF"/>
  <rect x="101" y="88" width="523" height="364" rx="40" fill="#F5E6D3"/>
  <path d="M229 180C298.2 129.2 378.833 117.833 442.5 122.5C500 126.7 548.667 154.917 585 197" stroke="#143A52" stroke-width="18" stroke-linecap="round"/>
  <path d="M163 250C225.4 234 273 247.333 305 261.5C348.2 280.3 397.333 286.333 439 284" stroke="#C98F5B" stroke-width="18" stroke-linecap="round"/>
  <path d="M265 351C324.2 314.6 382.5 320.5 414 331C461.2 346.6 517.333 331.5 556 308" stroke="#143A52" stroke-width="18" stroke-linecap="round"/>
  <circle cx="320" cy="235" r="23" fill="#143A52"/>
  <circle cx="320" cy="235" r="11" fill="#F5E6D3"/>
  <circle cx="390" cy="334" r="23" fill="#C98F5B"/>
  <circle cx="390" cy="334" r="11" fill="#F5E6D3"/>
  <circle cx="515" cy="202" r="23" fill="#143A52"/>
  <circle cx="515" cy="202" r="11" fill="#F5E6D3"/>
  <circle cx="220" cy="250" r="23" fill="#C98F5B"/>
  <circle cx="220" cy="250" r="11" fill="#F5E6D3"/>
</svg>
